<?xml version="1.0" encoding="UTF-8" standalone="no"?>
<!-- Created with Inkscape (http://www.inkscape.org/) -->

<svg
   width="180"
   height="180"
   viewBox="0 0 180 180"
   version="1.1"
   id="svg1"
   xmlns="http://www.w3.org/2000/svg"
   xmlns:svg="http://www.w3.org/2000/svg">
  <defs
     id="defs1" />
  <g
     id="layer1">
    <path
       d="m 63.916818,64.631206 h 2.589447 l 0.448981,-0.414408 c 0,0 1.389114,-1.170304 2.272412,-1.880171 0.883313,-0.709858 2.7837,-1.96842 2.7837,-1.96842 l 3.36647,-2.068188 3.065929,-1.751628 4.09949,-1.949235 2.913827,-1.220191 1.167351,-0.452779 1.955382,-0.709862 2.314553,-0.688754 1.297479,-0.354931 1.222332,-0.353012 1.204006,-0.276254 1.42943,-0.276254 1.37261,-0.216767 1.823417,-0.274335 1.260826,-0.157318 1.57969,-0.09978 1.22233,-0.07673 7.84349,0.01919 2.70673,0.274371 1.74829,0.216768 1.88207,0.333822 1.42942,0.216767 h 0.0732 l -0.33719,1.615409 -1.69331,8.643029 -0.56443,2.854788 5.66269,-0.117014 -0.20707,-0.414407 c 0,0 -0.75136,-1.870577 -0.84665,-2.716655 -0.0952,-0.846073 -0.0567,-4.725365 -0.0567,-4.725365 l 0.31887,-4.646704 4.64562,1.122346 9.45981,2.678284 6.65781,2.185217 c 0,0 -0.90164,0.86526 -1.29748,1.082056 -0.394,0.216767 -1.76845,1.181823 -2.1258,1.33914 -0.35737,0.157316 -2.38787,1.141536 -2.38787,1.141536 l -3.02742,1.083971 c 0,0 -3.3848,1.062876 -3.79898,1.101246 a 89.998435,94.219547 0 0 0 -2.74521,0.452776 l -0.52779,0.07868 3.30967,-0.117014 17.43524,-0.826887 9.91064,-0.650387 12.97657,-1.33914 c 0,0 -3.47824,-0.117014 -4.68226,-0.216766 -1.20402,-0.09594 -3.62853,-0.531437 -3.62853,-0.531437 l -2.16431,-0.452694 -4.34322,-0.984213 -6.34077,-1.830286 -4.92598,-1.555932 -4.138,-1.279672 -6.39389,-2.008711 -7.67305,-2.087373 -6.07503,-1.318035 -4.41838,-0.571727 -4.75923,-0.433589 L 103.79402,47 l -2.21744,0.235994 -3.441597,0.452775 -3.386622,0.669568 c 0,0 -6.130018,1.573203 -8.444571,2.244693 -2.312728,0.669571 -8.067059,3.858187 -8.067059,3.858187 0,0 -7.880127,4.882682 -8.125703,5.061111 -0.243736,0.176506 -3.555212,2.795313 -3.87408,3.069663 -0.318883,0.276254 -2.320067,2.03941 -2.320067,2.03941 z"
       style="fill:#da3c31;fill-opacity:1;stroke-width:1.87508"
       id="path1" />
    <path
       d="m 73.842113,64.483477 0.04223,-1.876333 0.293202,-0.610096 0.164943,-0.349175 0.08244,-0.130457 0.417829,-0.349174 0.373849,-0.262821 0.458145,-0.172668 h 4.084841 l 0.124669,0.08632 0.08244,0.08635 0.08431,0.08823 0.04223,0.04414 0.08244,0.08632 0.08244,0.174588 v 2.008712 c 0,0 0,0.260939 -0.207068,0.479632 -0.208908,0.218724 -0.333519,0.349174 -0.624912,0.349174 -0.293188,0 -2.877158,-0.130458 -2.877158,-0.130458 l -0.207069,0.04221 -0.164957,0.134292 -0.12826,0.08444 -0.247399,0.172668 -0.124669,0.176506 h -1.291978 l -0.293188,-0.04414 z"
       style="fill:#da3c31;fill-opacity:1;stroke-width:1.87508"
       id="path2" />
    <path
       d="m 177.96798,58.591635 c 0.40681,1.047527 0.40681,2.286904 0.40681,2.286904 l -0.1834,0.504576 -0.40866,0.542947 -0.48195,0.272415 -2.11117,0.502657 c 0,0 -3.10988,0.659981 -5.99804,1.009156 -2.89,0.349174 -8.88805,1.007232 -11.18429,1.162637 -2.29624,0.153479 -8.55454,0.619687 -10.48241,0.736716 -1.92422,0.115104 -6.66512,0.310832 -7.99743,0.387549 -1.33412,0.07673 -2.85149,0.15348 -3.51856,0.15348 -0.66707,0 -12.18489,0.310831 -12.18489,0.310831 l -35.218689,0.466208 -42.144039,0.268615 -12.443275,0.195696 -3.591874,0.191857 -3.445267,0.429753 c 0,0 -3.109901,0.464288 -3.848437,0.581321 -0.744027,0.115133 -3.445263,0.96888 -3.445263,0.96888 l -0.853987,0.230236 -0.665228,0.157317 -0.74037,0.272416 -0.593754,0.153479 -2.591281,0.930488 -2.296236,1.047523 -1.594352,0.853754 -1.7776075,1.045607 -1.5540388,1.085891 -1.9242187,1.784247 -0.7055444,0.581315 -1.0372462,1.201005 0.036539,0.310831 c 0,0 -0.5919216,-0.232155 -0.7403627,-0.542946 C 2.5028431,78.364164 2.7612445,77.627474 3.50161,76.775643 4.241977,75.921888 6.1680284,74.333339 6.1680284,74.333339 l 2.1111392,-1.473441 2.8515124,-1.592389 3.335311,-1.471522 1.330456,-0.502655 1.557704,-0.542947 2.257751,-0.621614 1.222334,-0.387542 1.183853,-0.270497 2.186277,-0.466204 1.814265,-0.270498 1.777608,-0.272452 1.631005,-0.191859 c 0,0 6.51669,-0.659979 8.851403,-0.659979 2.331054,0 7.257053,-0.155399 7.257053,-0.155399 l 22.441877,-0.38753 55.439473,-1.085895 c 0,0 10.33213,-0.349174 13.18364,-0.464289 2.8515,-0.117014 14.59107,-0.815378 15.74194,-0.930493 1.14536,-0.117014 2.21927,-0.310831 4.36705,-0.504571 2.14779,-0.193778 5.51792,-0.387546 7.03715,-0.581319 a 1260.0147,1319.112 0 0 0 6.33342,-0.853753 l 5.2229,-0.968861 z"
       style="fill:#da3c31;fill-opacity:1;stroke-width:1.87508"
       id="path3" />
    <path
       d="m 165.94438,65.385193 c 0,-0.245588 -0.0148,-0.253264 -0.0148,-0.253264 l 1.83259,-0.01512 c 0,0 -0.0458,-0.01336 2.07447,-0.299282 2.12032,-0.28393 7.07381,-1.329548 7.07381,-1.329548 l -4.2608,15.154551 1.07026,-8.153797 0.0642,-3.251929 c 0,0 -0.1465,-0.692592 -1.08126,-0.989965 a 17.886065,18.724959 0 0 0 -2.10928,-0.483471 l -1.39644,-0.197615 -2.10934,-0.164993 z M 7.3741267,77.176543 c 5.9137633,-3.61261 5.9595793,-3.658657 5.9595793,-3.658657 l -0.08063,-0.205291 -0.960277,0.345337 c 0,0 -1.414761,0.679167 -2.125804,1.135779 -0.7110463,0.45661 -1.0848902,0.659977 -1.8765697,1.331464 -0.7916824,0.67149 -1.1197118,0.88253 -1.0848935,0.920902 0.036539,0.03838 -0.097121,0.07484 0.036539,0.130457 0.1319655,0.05757 0.1319655,0 0.1319655,0 z M 5.3179611,79.15264 c 0.9895962,-0.821136 3.1447273,-1.54826 3.1447273,-1.54826 l 0.8099979,-0.01919 c 0,0 0.3023816,-0.638875 1.3561147,-1.460011 a 37.329836,39.080678 0 0 1 2.74339,-1.9761 c 0.645069,-0.40289 1.521049,-0.989966 2.050666,-1.281583 0.531449,-0.291605 2.17345,-1.162636 2.426349,-1.29118 0.252894,-0.128562 0.302381,-0.274336 2.204605,-1.197168 1.904059,-0.92282 2.074487,-0.890201 2.074487,-0.890201 0,0 -0.03137,-0.09594 0.05864,0.01882 0.08978,0.109373 0.170418,0.143884 0.0166,0.272454 -0.155766,0.128533 -0.06598,0.08632 -0.205253,0.16311 -0.139276,0.07673 -0.874149,0.460447 -1.167364,0.588991 -0.293193,0.128533 -0.01846,0.04221 -0.703711,0.376036 -0.685389,0.333822 -1.632834,0.924735 -1.975528,1.103157 -0.342717,0.180381 -3.038432,1.694071 -3.262011,1.933891 -0.219905,0.237913 -2.375034,1.49646 -2.996282,2.137255 -0.619418,0.640791 -1.533876,1.367916 -1.819758,1.837961 C 9.7858994,78.390664 9.7950887,78.43479 9.7950887,78.43479 L 7.6546264,78.40785 c 0,0 0.018456,-0.282048 -1.0372477,0.299281 -1.0537376,0.581319 -1.1178791,0.625444 -1.1178791,0.625444 0,0 -0.018456,0.101674 -0.1154339,0 -0.097093,-0.103628 -0.091635,-0.05945 -0.1063135,-0.111269 -0.018456,-0.05178 0.040331,-0.06904 0.040331,-0.06904 z"
       style="fill:#d9d9d9;fill-opacity:1;stroke-width:1.87508"
       id="path4" />
    <text
       xml:space="preserve"
       x="16.720734"
       y="145.6787"
       style="font-style:normal;font-variant:normal;font-weight:700;font-stretch:normal;font-size:10.9429px;font-family:'Grantha Sangam MN';-inkscape-font-specification:'Grantha Sangam MN Bold';fill:#da3c31;fill-opacity:1;stroke-width:2.05178"
       transform="scale(1.3000587,0.76919604)"
       id="text4"><tspan
         x="16.720734"
         y="145.6787"
         style="fill:#da3c31;fill-opacity:1;stroke-width:2.05178"
         id="tspan4">DRIVING</tspan></text>
    <text
       xml:space="preserve"
       x="62.097218"
       y="144.25227"
       style="font-style:normal;font-variant:normal;font-weight:700;font-stretch:normal;font-size:10.7804px;font-family:'Grantha Sangam MN';-inkscape-font-specification:'Grantha Sangam MN Bold';fill:#da3c31;fill-opacity:1;stroke-width:2.02132"
       transform="scale(1.2850801,0.77816161)"
       id="text5"><tspan
         x="62.097218"
         y="144.25227"
         style="fill:#da3c31;fill-opacity:1;stroke-width:2.02132"
         id="tspan5">ACADEMY</tspan></text>
    <text
       xml:space="preserve"
       x="5.7758899"
       y="127.76352"
       style="font-style:normal;font-variant:normal;font-weight:700;font-stretch:normal;font-size:44.2623px;font-family:'Grantha Sangam MN';-inkscape-font-specification:'Grantha Sangam MN Bold';fill:#d9d9d9;fill-opacity:1;stroke-width:3.68848"
       transform="scale(1.2616059,0.79264055)"
       id="text6"><tspan
         x="5.7758899"
         y="127.76352"
         style="fill:#d9d9d9;fill-opacity:1;stroke-width:3.68848"
         id="tspan6">G</tspan></text>
    <text
       xml:space="preserve"
       x="39.131462"
       y="134.2318"
       style="font-style:normal;font-variant:normal;font-weight:700;font-stretch:normal;font-size:44.686px;font-family:'Grantha Sangam MN';-inkscape-font-specification:'Grantha Sangam MN Bold';fill:#d9d9d9;fill-opacity:1;stroke-width:3.72386"
       transform="matrix(1.3334047,-0.00955076,0,0.74995985,0,0)"
       id="text7"><tspan
         x="39.131462"
         y="134.2318"
         style="fill:#d9d9d9;fill-opacity:1;stroke-width:3.72386"
         id="tspan7">U</tspan></text>
    <text
       xml:space="preserve"
       x="68.722229"
       y="134.76106"
       style="font-style:normal;font-variant:normal;font-weight:700;font-stretch:normal;font-size:44.5137px;font-family:'Grantha Sangam MN';-inkscape-font-specification:'Grantha Sangam MN Bold';fill:#d9d9d9;fill-opacity:1;stroke-width:3.70947"
       transform="scale(1.3538847,0.73861533)"
       id="text8"><tspan
         x="68.722229"
         y="134.76106"
         style="fill:#d9d9d9;fill-opacity:1;stroke-width:3.70947"
         id="tspan8">R</tspan></text>
    <text
       xml:space="preserve"
       x="100.34298"
       y="134.39742"
       style="font-style:normal;font-variant:normal;font-weight:700;font-stretch:normal;font-size:44.9037px;font-family:'Grantha Sangam MN';-inkscape-font-specification:'Grantha Sangam MN Bold';fill:#d9d9d9;fill-opacity:1;stroke-width:3.74199"
       transform="matrix(1.3269383,-0.00960144,0,0.75361455,0,0)"
       id="text9"><tspan
         x="100.34298"
         y="134.39742"
         style="fill:#d9d9d9;fill-opacity:1;stroke-width:3.74199"
         id="tspan9">U</tspan></text>
    <ellipse
       cx="153.37395"
       cy="104.38418"
       rx="1.764783"
       ry="1.7976729"
       style="fill:#da3c31;fill-opacity:1;stroke-width:1.87508"
       id="ellipse9" />
    <ellipse
       cx="153.33478"
       cy="108.2021"
       rx="1.7281313"
       ry="1.8859258"
       style="fill:#e7ae63;fill-opacity:1;stroke-width:1.87508"
       id="ellipse10" />
    <ellipse
       cx="153.30292"
       cy="112.09898"
       rx="1.8380865"
       ry="1.8993554"
       style="fill:#94bf5e;fill-opacity:1;stroke-width:1.87508"
       id="ellipse11" />
  </g>
</svg>
