<?xml version="1.0" encoding="UTF-8" standalone="no"?>
<svg
   width="180"
   height="180"
   version="1.1"
   id="svg11"
   sodipodi:docname="logo.svg"
   inkscape:version="1.3 (0e150ed, 2023-07-21)"
   xmlns:inkscape="http://www.inkscape.org/namespaces/inkscape"
   xmlns:sodipodi="http://sodipodi.sourceforge.net/DTD/sodipodi-0.dtd"
   xmlns="http://www.w3.org/2000/svg"
   xmlns:svg="http://www.w3.org/2000/svg">
   <defs
      id="defs11" />
   <sodipodi:namedview
      id="namedview11"
      pagecolor="#ffffff"
      bordercolor="#000000"
      borderopacity="0.25"
      inkscape:showpageshadow="2"
      inkscape:pageopacity="0.0"
      inkscape:pagecheckerboard="0"
      inkscape:deskcolor="#d1d1d1"
      showgrid="true"
      inkscape:zoom="2.1068999"
      inkscape:cx="131.7101"
      inkscape:cy="76.41559"
      inkscape:window-width="1824"
      inkscape:window-height="951"
      inkscape:window-x="0"
      inkscape:window-y="0"
      inkscape:window-maximized="0"
      inkscape:current-layer="svg11">
      <inkscape:grid
         id="grid11"
         units="px"
         originx="0"
         originy="0"
         spacingx="1"
         spacingy="1"
         empcolor="#0099e5"
         empopacity="0.30196078"
         color="#0099e5"
         opacity="0.14901961"
         empspacing="5"
         dotted="false"
         gridanglex="30"
         gridanglez="30"
         visible="true" />
   </sodipodi:namedview>
   <path
      d="m 61.056121,65.615977 h 2.366487 l 0.410325,-0.404408 c 0,0 1.269496,-1.142076 2.076747,-1.834811 0.807252,-0.692735 2.544016,-1.920936 2.544016,-1.920936 l 3.0766,-2.018293 2.801934,-1.70937 3.746519,-1.902213 2.662926,-1.190755 1.066845,-0.441853 1.787008,-0.692735 2.115267,-0.67214 1.185756,-0.346367 1.117089,-0.344496 1.100341,-0.269605 1.306341,-0.269605 1.254422,-0.211565 1.666422,-0.267732 1.15226,-0.153525 1.443674,-0.09736 1.11709,-0.07489 7.16813,0.01872 2.47367,0.267733 1.59776,0.211565 1.72001,0.325773 1.30634,0.211565 h 0.067 l -0.30816,1.57644 -1.54751,8.434517 -0.51584,2.785918 5.17512,-0.114208 -0.18925,-0.404407 c 0,0 -0.68667,-1.825451 -0.77376,-2.651116 -0.0871,-0.825665 -0.0519,-4.611368 -0.0519,-4.611368 l 0.29142,-4.534606 4.24561,1.09527 8.64529,2.613671 6.08454,2.1325 c 0,0 -0.824,0.844388 -1.18576,1.055953 -0.36008,0.211565 -1.61618,1.15331 -1.94276,1.306835 -0.32659,0.153525 -2.18226,1.113993 -2.18226,1.113993 l -2.76676,1.057825 c 0,0 -3.09335,1.03723 -3.47186,1.074675 a 82.249239,91.946529 0 0 0 -2.50884,0.441853 l -0.48234,0.07676 3.02468,-0.114207 15.93401,-0.806943 9.0573,-0.634695 11.85923,-1.306835 c 0,0 -3.17876,-0.114208 -4.2791,-0.211565 -1.10035,-0.09361 -3.3161,-0.518615 -3.3161,-0.518615 l -1.97794,-0.441853 -3.96926,-0.960468 -5.7948,-1.786133 -4.50185,-1.5184 -3.78169,-1.248795 -5.84336,-1.960253 -7.01237,-2.037015 -5.55195,-1.286241 -4.03794,-0.557932 -4.34944,-0.42313 -5.861788,-0.05617 -2.026503,0.230288 -3.145267,0.441852 -3.095024,0.653418 c 0,0 -5.602193,1.53525 -7.71746,2.19054 -2.113593,0.653418 -7.372453,3.765109 -7.372453,3.765109 0,0 -7.201623,4.764893 -7.426046,4.939013 -0.222748,0.172248 -3.249105,2.727878 -3.540519,2.995611 -0.291415,0.269605 -2.120292,1.990209 -2.120292,1.990209 z"
      style="fill:#da3c31;fill-opacity:1;stroke-width:1.77078"
      id="path1" />
   <path
      d="m 70.126817,65.471813 0.03852,-1.831067 0.267968,-0.595378 0.150731,-0.340751 0.07537,-0.127313 0.381854,-0.340751 0.341658,-0.256499 0.418699,-0.168503 h 3.733121 l 0.113886,0.08425 0.07537,0.08425 0.07704,0.08612 0.03852,0.04306 0.07537,0.08425 0.07537,0.170376 v 1.960253 c 0,0 0,0.254626 -0.189252,0.468064 -0.190926,0.213437 -0.304813,0.34075 -0.571105,0.34075 -0.267968,0 -2.62943,-0.127313 -2.62943,-0.127313 l -0.189252,0.04119 -0.150732,0.131058 -0.117235,0.08238 -0.226098,0.168503 -0.113886,0.172248 h -1.180731 l -0.267968,-0.04306 z"
      style="fill:#da3c31;fill-opacity:1;stroke-width:1.77078"
      id="path2" />
   <path
      d="m 165.28706,59.722112 c 0.3718,1.022253 0.3718,2.23173 0.3718,2.23173 l -0.16748,0.492404 -0.37348,0.529849 -0.44047,0.26586 -1.92937,0.490531 c 0,0 -2.84212,0.644057 -5.4816,0.984807 -2.64116,0.340751 -8.12276,0.982935 -10.22128,1.134588 -2.09852,0.149781 -7.81795,0.604739 -9.57984,0.718947 -1.75853,0.112335 -6.09123,0.303305 -7.30881,0.378195 -1.21925,0.07489 -2.60598,0.149781 -3.21561,0.149781 -0.60962,0 -11.13572,0.303306 -11.13572,0.303306 l -32.186225,0.454958 -38.515287,0.262116 -11.371866,0.19097 -3.282601,0.187226 -3.148616,0.419385 c 0,0 -2.842129,0.453086 -3.517072,0.567294 -0.679967,0.112336 -3.148617,0.94549 -3.148617,0.94549 l -0.780455,0.224671 -0.607951,0.153525 -0.676618,0.26586 -0.542634,0.149781 -2.368161,0.908044 -2.09852,1.022252 -1.457073,0.833155 -1.624552,1.02038 -1.420227,1.059697 -1.758536,1.741199 -0.6447965,0.567293 -0.9479346,1.172033 0.033496,0.303306 c 0,0 -0.5409591,-0.226543 -0.6766176,-0.529849 -0.1339837,-0.303305 0.1021626,-1.022252 0.7787802,-1.853534 0.6766176,-0.833154 2.4368284,-2.383383 2.4368284,-2.383383 l 1.9293651,-1.437893 2.605983,-1.553973 3.048129,-1.436021 1.215902,-0.490531 1.423577,-0.529849 2.063349,-0.606611 1.117089,-0.378196 1.081918,-0.263988 1.998031,-0.454959 1.658049,-0.263988 1.624552,-0.26586 1.490568,-0.187226 c 0,0 5.955576,-0.644056 8.089266,-0.644056 2.130341,0 6.632193,-0.151653 6.632193,-0.151653 L 64.767469,66.040979 115.4334,64.981282 c 0,0 9.4425,-0.340751 12.04848,-0.453087 2.60598,-0.114207 13.33473,-0.795709 14.3865,-0.908044 1.04675,-0.114208 2.02818,-0.303306 3.99104,-0.492404 1.96286,-0.189097 5.04281,-0.378195 6.43122,-0.567293 a 1151.5228,1287.2889 0 0 0 5.78809,-0.833155 l 4.77317,-0.945489 z"
      style="fill:#da3c31;fill-opacity:1;stroke-width:1.77078"
      id="path3" />
   <path
      d="m 154.29872,66.351774 c 0,-0.239649 -0.0134,-0.247138 -0.0134,-0.247138 l 1.6748,-0.01498 c 0,0 -0.0419,-0.01311 1.89586,-0.292072 1.93774,-0.277094 6.46472,-1.297474 6.46472,-1.297474 l -3.8939,14.788956 0.97808,-7.957091 0.0586,-3.173476 c 0,0 -0.13399,-0.675884 -0.98813,-0.966084 a 16.34601,18.273226 0 0 0 -1.92769,-0.471809 l -1.2762,-0.192842 -1.92769,-0.161014 z M 9.3819607,77.858664 C 14.786528,74.333204 14.828398,74.28827 14.828398,74.28827 l -0.07369,-0.200332 -0.877593,0.337007 c 0,0 -1.292943,0.662779 -1.942764,1.108376 -0.649821,0.445597 -0.991479,0.644056 -1.714991,1.299346 -0.7235122,0.65529 -1.0233007,0.861238 -0.9914796,0.898683 0.033496,0.03745 -0.088764,0.07302 0.033496,0.127314 0.1205854,0.05617 0.1205854,0 0.1205853,0 z M 7.5028394,79.787088 C 8.4072293,78.985762 10.37679,78.276177 10.37679,78.276177 l 0.74026,-0.01872 c 0,0 0.276341,-0.623461 1.239349,-1.424787 a 34.115598,38.13787 0 0 1 2.50717,-1.928428 c 0.589528,-0.393173 1.39008,-0.966084 1.874096,-1.250667 0.485691,-0.284583 1.986309,-1.134588 2.217431,-1.260029 0.231121,-0.125441 0.276341,-0.267733 2.014779,-1.168288 1.740113,-0.900556 1.89587,-0.868727 1.89587,-0.868727 0,0 -0.02847,-0.09361 0.05359,0.01872 0.08207,0.106719 0.155756,0.14042 0.01507,0.265861 -0.142358,0.125441 -0.06029,0.08425 -0.187578,0.159142 -0.127284,0.07489 -0.798877,0.449341 -1.066845,0.574782 -0.267967,0.125442 -0.01675,0.04119 -0.643121,0.366963 -0.626374,0.325772 -1.492244,0.902428 -1.805431,1.076547 -0.313187,0.175993 -2.776812,1.653203 -2.981137,1.887235 -0.200975,0.23216 -2.170536,1.46036 -2.738292,2.085694 -0.566081,0.625334 -1.401804,1.334919 -1.663072,1.793622 -0.262943,0.458703 -0.254569,0.501765 -0.254569,0.501765 l -1.9561621,-0.02621 c 0,0 0.016748,-0.275221 -0.9479346,0.292072 -0.9630078,0.567294 -1.0216257,0.610356 -1.0216257,0.610356 0,0 -0.016748,0.09923 -0.1055122,0 -0.088764,-0.101102 -0.08374,-0.05804 -0.097138,-0.108591 -0.016748,-0.05055 0.036846,-0.0674 0.036846,-0.0674 z"
      style="fill:#d9d9d9;fill-opacity:1;stroke-width:1.77078"
      id="path4" />
   <text
      xml:space="preserve"
      x="18.507477"
      y="143.37988"
      style="font-style:normal;font-variant:normal;font-weight:700;font-stretch:normal;font-size:10.3342px;font-family:'Grantha Sangam MN';-inkscape-font-specification:'Grantha Sangam MN Bold';fill:#da3c31;fill-opacity:1;stroke-width:1.93766"
      transform="scale(1.2580974,0.79485103)"
      id="text4"><tspan
       x="18.507477"
       y="143.37988"
       style="fill:#da3c31;fill-opacity:1;stroke-width:1.93766"
       id="tspan4">DRIVING</tspan></text>
   <text
      xml:space="preserve"
      x="63.88517"
      y="141.4512"
      style="font-style:normal;font-variant:normal;font-weight:700;font-stretch:normal;font-size:10.1808px;font-family:'Grantha Sangam MN';-inkscape-font-specification:'Grantha Sangam MN Bold';fill:#da3c31;fill-opacity:1;stroke-width:1.90889"
      transform="scale(1.2436023,0.8041156)"
      id="text5"><tspan
       x="63.88517"
       y="141.4512"
       style="fill:#da3c31;fill-opacity:1;stroke-width:1.90889"
       id="tspan5">ACADEMY</tspan></text>
   <text
      xml:space="preserve"
      x="7.6192636"
      y="123.76292"
      style="font-style:normal;font-variant:normal;font-weight:700;font-stretch:normal;font-size:41.8001px;font-family:'Grantha Sangam MN';-inkscape-font-specification:'Grantha Sangam MN Bold';fill:#d9d9d9;fill-opacity:1;stroke-width:3.48334"
      transform="scale(1.2208857,0.81907751)"
      id="text6"><tspan
       x="7.6192636"
       y="123.76292"
       style="fill:#d9d9d9;fill-opacity:1;stroke-width:3.48334"
       id="tspan6">G</tspan></text>
   <text
      xml:space="preserve"
      x="39.002941"
      y="130.07423"
      style="font-style:normal;font-variant:normal;font-weight:700;font-stretch:normal;font-size:42.2007px;font-family:'Grantha Sangam MN';-inkscape-font-specification:'Grantha Sangam MN Bold';fill:#d9d9d9;fill-opacity:1;stroke-width:3.51674"
      transform="matrix(1.2903671,-0.00986931,0,0.77497325,0,0)"
      id="text7"><tspan
       x="39.002941"
       y="130.07423"
       style="fill:#d9d9d9;fill-opacity:1;stroke-width:3.51674"
       id="tspan7">U</tspan></text>
   <text
      xml:space="preserve"
      x="66.916832"
      y="130.5984"
      style="font-style:normal;font-variant:normal;font-weight:700;font-stretch:normal;font-size:42.0378px;font-family:'Grantha Sangam MN';-inkscape-font-specification:'Grantha Sangam MN Bold';fill:#d9d9d9;fill-opacity:1;stroke-width:3.50316"
      transform="scale(1.3101861,0.76325036)"
      id="text8"><tspan
       x="66.916832"
       y="130.5984"
       style="fill:#d9d9d9;fill-opacity:1;stroke-width:3.50316"
       id="tspan8">R</tspan></text>
   <text
      xml:space="preserve"
      x="96.819717"
      y="130.21484"
      style="font-style:normal;font-variant:normal;font-weight:700;font-stretch:normal;font-size:42.4062px;font-family:'Grantha Sangam MN';-inkscape-font-specification:'Grantha Sangam MN Bold';fill:#d9d9d9;fill-opacity:1;stroke-width:3.53385"
      transform="matrix(1.2841094,-0.00992167,0,0.77874986,0,0)"
      id="text9"><tspan
       x="96.819717"
       y="130.21484"
       style="fill:#d9d9d9;fill-opacity:1;stroke-width:3.53385"
       id="tspan9">U</tspan></text>
   <ellipse
      cx="144.74873"
      cy="106.47943"
      rx="1.6128287"
      ry="1.7543045"
      style="fill:#da3c31;fill-opacity:1;stroke-width:1.77078"
      id="ellipse9" />
   <ellipse
      cx="144.71292"
      cy="110.20523"
      rx="1.5793328"
      ry="1.8404284"
      style="fill:#e7ae63;fill-opacity:1;stroke-width:1.77078"
      id="ellipse10" />
   <ellipse
      cx="144.68381"
      cy="114.0081"
      rx="1.6798205"
      ry="1.8535342"
      style="fill:#94bf5e;fill-opacity:1;stroke-width:1.77078"
      id="ellipse11" />
</svg>
