<svg xmlns="http://www.w3.org/2000/svg" width="180" height="180"><path d="M57 72.19h1.413l.245-.216s.758-.61 1.24-.98 1.519-1.026 1.519-1.026l1.837-1.078 1.673-.913 2.237-1.016 1.59-.636.637-.236 1.067-.37 1.263-.359.708-.185.667-.184.657-.144.78-.144.749-.113.995-.143.688-.082.862-.052.667-.04 4.28.01 1.477.143.954.113 1.027.174.78.113h.04l-.184.842-.924 4.505-.308 1.488 3.09-.061-.113-.216s-.41-.975-.462-1.416c-.052-.441-.031-2.463-.031-2.463l.174-2.422 2.535.585 5.162 1.396 3.633 1.139s-.492.451-.708.564c-.215.113-.965.616-1.16.698-.195.082-1.303.595-1.303.595l-1.652.565s-1.847.554-2.073.574a49.11 49.11 0 0 0-1.498.236l-.288.041 1.806-.061 9.514-.431 5.408-.339 7.081-.698s-1.898-.061-2.555-.113c-.657-.05-1.98-.277-1.98-.277l-1.181-.236-2.37-.513-3.46-.954-2.688-.811-2.258-.667-3.489-1.047-4.187-1.088-3.315-.687-2.411-.298-2.597-.226-3.5-.03-1.21.123-1.878.236-1.848.349s-3.345.82-4.608 1.17c-1.262.349-4.402 2.011-4.402 2.011s-4.3 2.545-4.434 2.638c-.133.092-1.94 1.457-2.114 1.6C58.092 71.271 57 72.19 57 72.19Z" style="fill:#da3c31;fill-opacity:1"/><path d="m62.416 72.113.023-.978.16-.318.09-.182.045-.068.228-.182.204-.137.25-.09h2.229l.068.045.045.045.046.046.023.023.045.045.045.091V71.5s0 .136-.113.25c-.114.114-.182.182-.341.182-.16 0-1.57-.068-1.57-.068l-.113.022-.09.07-.07.044-.135.09-.068.092h-.705l-.16-.023z" style="fill:#da3c31;fill-opacity:1"/><path d="M119.235 69.042c.222.546.222 1.192.222 1.192l-.1.263-.223.283-.263.142-1.152.262s-1.697.344-3.273.526c-1.577.182-4.85.525-6.103.606-1.253.08-4.668.323-5.72.384-1.05.06-3.637.162-4.364.202-.728.04-1.556.08-1.92.08-.364 0-6.649.162-6.649.162l-19.218.243-22.997.14-6.79.102-1.96.1-1.88.224s-1.697.242-2.1.303c-.406.06-1.88.505-1.88.505l-.466.12-.363.082-.404.142-.324.08-1.414.485-1.253.546-.87.445-.97.545-.848.566-1.05.93-.385.303-.566.626.02.162s-.323-.121-.404-.283c-.08-.162.061-.546.465-.99.404-.445 1.455-1.273 1.455-1.273l1.152-.768 1.556-.83 1.82-.767.726-.262.85-.283 1.232-.324.667-.202.646-.141 1.193-.243.99-.141.97-.142.89-.1s3.556-.344 4.83-.344c1.272 0 3.96-.081 3.96-.081l12.246-.202 30.252-.566s5.638-.182 7.194-.242c1.556-.061 7.962-.425 8.59-.485.625-.061 1.211-.162 2.383-.263s3.011-.202 3.84-.303a687.56 687.56 0 0 0 3.456-.445l2.85-.505z" style="fill:#da3c31;fill-opacity:1"/><path d="M112.674 72.583c0-.128-.008-.132-.008-.132l1-.008s-.025-.007 1.132-.156c1.157-.148 3.86-.693 3.86-.693l-2.325 7.899.584-4.25.035-1.695s-.08-.361-.59-.516a9.76 9.76 0 0 0-1.151-.252l-.762-.103-1.151-.086zm-86.528 6.146c3.227-1.883 3.252-1.907 3.252-1.907l-.044-.107-.524.18s-.772.354-1.16.592c-.388.238-.592.344-1.024.694-.432.35-.611.46-.592.48.02.02-.053.039.02.068.072.03.072 0 .072 0zm-1.122 1.03c.54-.428 1.716-.807 1.716-.807l.442-.01s.165-.333.74-.761a20.37 20.37 0 0 1 1.497-1.03c.352-.21.83-.516 1.119-.668.29-.152 1.186-.606 1.324-.673.138-.067.165-.143 1.203-.624 1.039-.481 1.132-.464 1.132-.464s-.017-.05.032.01c.049.057.093.075.009.142-.085.067-.036.045-.112.085-.076.04-.477.24-.637.307-.16.067-.01.022-.384.196-.374.174-.891.482-1.078.575-.187.094-1.658.883-1.78 1.008-.12.124-1.296.78-1.635 1.114-.338.334-.837.713-.993.958-.157.245-.152.268-.152.268l-1.168-.014s.01-.147-.566.156c-.575.303-.61.326-.61.326s-.01.053-.063 0c-.053-.054-.05-.031-.058-.058-.01-.027.022-.036.022-.036z" style="fill:#d9d9d9;fill-opacity:1"/><text xml:space="preserve" x="25.896" y="130.378" style="font-style:normal;font-variant:normal;font-weight:700;font-stretch:normal;font-size:5.83595px;font-family:&quot;Grantha Sangam MN&quot;;-inkscape-font-specification:&quot;Grantha Sangam MN Bold&quot;;fill:#da3c31;fill-opacity:1;stroke-width:1.09424" transform="scale(1.3302 .75177)"><tspan x="25.896" y="130.378" style="fill:#da3c31;fill-opacity:1;stroke-width:1.09424">DRIVING</tspan></text><text xml:space="preserve" x="51.702" y="128.72" style="font-style:normal;font-variant:normal;font-weight:700;font-stretch:normal;font-size:5.74937px;font-family:&quot;Grantha Sangam MN&quot;;-inkscape-font-specification:&quot;Grantha Sangam MN Bold&quot;;fill:#da3c31;fill-opacity:1;stroke-width:1.078" transform="scale(1.31487 .76053)"><tspan x="51.702" y="128.72" style="fill:#da3c31;fill-opacity:1;stroke-width:1.078">ACADEMY</tspan></text><text xml:space="preserve" x="20.218" y="117.839" style="font-style:normal;font-variant:normal;font-weight:700;font-stretch:normal;font-size:23.6056px;font-family:&quot;Grantha Sangam MN&quot;;-inkscape-font-specification:&quot;Grantha Sangam MN Bold&quot;;fill:#d9d9d9;fill-opacity:1;stroke-width:1.96713" transform="scale(1.29085 .77468)"><tspan x="20.218" y="117.839" style="fill:#d9d9d9;fill-opacity:1;stroke-width:1.96713">G</tspan></text><text xml:space="preserve" x="37.084" y="124.323" style="font-style:normal;font-variant:normal;font-weight:700;font-stretch:normal;font-size:23.8317px;font-family:&quot;Grantha Sangam MN&quot;;-inkscape-font-specification:&quot;Grantha Sangam MN Bold&quot;;fill:#d9d9d9;fill-opacity:1;stroke-width:1.98598" transform="skewY(-.392) scale(1.36432 .73297)"><tspan x="37.084" y="124.323" style="fill:#d9d9d9;fill-opacity:1;stroke-width:1.98598">U</tspan></text><text xml:space="preserve" x="52.62" y="125.206" style="font-style:normal;font-variant:normal;font-weight:700;font-stretch:normal;font-size:23.7398px;font-family:&quot;Grantha Sangam MN&quot;;-inkscape-font-specification:&quot;Grantha Sangam MN Bold&quot;;fill:#d9d9d9;fill-opacity:1;stroke-width:1.97832" transform="scale(1.38527 .72188)"><tspan x="52.62" y="125.206" style="fill:#d9d9d9;fill-opacity:1;stroke-width:1.97832">R</tspan></text><text xml:space="preserve" x="69.808" y="124.158" style="font-style:normal;font-variant:normal;font-weight:700;font-stretch:normal;font-size:23.9478px;font-family:&quot;Grantha Sangam MN&quot;;-inkscape-font-specification:&quot;Grantha Sangam MN Bold&quot;;fill:#d9d9d9;fill-opacity:1;stroke-width:1.99565" transform="skewY(-.396) scale(1.3577 .73654)"><tspan x="69.808" y="124.158" style="fill:#d9d9d9;fill-opacity:1;stroke-width:1.99565">U</tspan></text><ellipse cx="104.963" cy="93.937" rx=".963" ry=".937" style="fill:#da3c31;fill-opacity:1"/><ellipse cx="104.981" cy="96.636" rx=".943" ry=".983" style="fill:#e7ae63;fill-opacity:1"/><ellipse cx="105.003" cy="99.258" rx="1.003" ry=".99" style="fill:#94bf5e;fill-opacity:1"/></svg>